<svg xmlns="http://www.w3.org/2000/svg" width="1254" height="1254" viewBox="0 0 1254 1254" version="1.1"><path d="M 563.074 269.118 L 499.648 333.027 547.074 380.620 C 573.158 406.795, 601.798 435.702, 610.718 444.856 L 626.936 461.500 691.055 397.148 L 755.174 332.796 691.367 268.898 C 656.273 233.754, 627.321 205.047, 627.030 205.104 C 626.738 205.161, 597.958 233.967, 563.074 269.118 M 420.912 412.534 C 386.035 447.478, 357.380 476.412, 357.234 476.832 C 356.907 477.770, 482.823 605, 484.078 605 C 485.240 605, 611.500 478.074, 611.500 476.905 C 611.500 476.257, 485.075 349, 484.431 349 C 484.372 349, 455.789 377.590, 420.912 412.534 M 706.247 412.253 C 671.461 447.042, 643.010 475.955, 643.021 476.503 C 643.033 477.051, 671.575 506.300, 706.447 541.500 L 769.851 605.500 833.925 541.503 C 869.166 506.305, 898 477.153, 898 476.722 C 898 475.725, 771.233 349, 770.236 349 C 769.828 349, 741.033 377.464, 706.247 412.253 M 563.956 556.167 C 529.055 591.428, 500.412 620.554, 500.305 620.889 C 500.198 621.225, 528.646 650.300, 563.522 685.500 L 626.932 749.500 690.967 685.502 C 726.186 650.303, 754.889 621.225, 754.751 620.884 C 754.613 620.542, 725.905 591.416, 690.956 556.159 L 627.411 492.054 563.956 556.167 M 900.565 505.195 C 893.513 512.513, 864.741 541.565, 836.628 569.756 L 785.514 621.012 849.757 685.255 L 914 749.498 978.249 685.249 L 1042.498 621 977.943 556.445 L 913.388 491.890 900.565 505.195 M 276.499 557.001 L 212.504 621.002 276.768 685.251 L 341.032 749.500 405.217 685.204 L 469.402 620.908 405.454 556.954 C 370.283 521.779, 341.278 493, 341 493 C 340.722 493, 311.696 521.800, 276.499 557.001 M 420.750 699.745 C 385.688 734.814, 357 763.956, 357 764.506 C 357 765.056, 385.689 794.192, 420.753 829.253 L 484.506 893 548.491 829.009 L 612.477 765.017 578.990 731.259 C 560.572 712.691, 531.777 683.659, 515.002 666.742 L 484.500 635.985 420.750 699.745 M 725.499 681.184 C 700.749 706.108, 671.958 735.170, 661.518 745.766 L 642.538 765.032 706.516 829.016 L 770.494 893 834.247 829.253 C 869.311 794.192, 898 765.165, 898 764.749 C 898 764.332, 869.313 735.164, 834.250 699.930 L 770.500 635.869 725.499 681.184 M 563.503 843.992 L 499.506 908 563 971.500 C 597.922 1006.425, 626.947 1035, 627.500 1035 C 628.053 1035, 656.940 1006.538, 691.693 971.750 L 754.880 908.500 691.190 844.242 L 627.500 779.983 563.503 843.992" stroke="none" fill="#8c8075" fill-rule="evenodd"/><path d="M 0 627.001 L 0 1254.002 627.250 1253.751 L 1254.500 1253.500 1254.751 626.750 L 1255.002 0 627.501 0 L 0 0 0 627.001 M 0.497 627.500 C 0.497 972.350, 0.611 1113.276, 0.750 940.668 C 0.889 768.060, 0.889 485.910, 0.750 313.668 C 0.611 141.426, 0.497 282.650, 0.497 627.500 M 563.074 269.118 L 499.648 333.027 547.074 380.620 C 573.158 406.795, 601.798 435.702, 610.718 444.856 L 626.936 461.500 691.055 397.148 L 755.174 332.796 691.367 268.898 C 656.273 233.754, 627.321 205.047, 627.030 205.104 C 626.738 205.161, 597.958 233.967, 563.074 269.118 M 420.912 412.534 C 386.035 447.478, 357.380 476.412, 357.234 476.832 C 356.907 477.770, 482.823 605, 484.078 605 C 485.240 605, 611.500 478.074, 611.500 476.905 C 611.500 476.257, 485.075 349, 484.431 349 C 484.372 349, 455.789 377.590, 420.912 412.534 M 706.247 412.253 C 671.461 447.042, 643.010 475.955, 643.021 476.503 C 643.033 477.051, 671.575 506.300, 706.447 541.500 L 769.851 605.500 833.925 541.503 C 869.166 506.305, 898 477.153, 898 476.722 C 898 475.725, 771.233 349, 770.236 349 C 769.828 349, 741.033 377.464, 706.247 412.253 M 563.956 556.167 C 529.055 591.428, 500.412 620.554, 500.305 620.889 C 500.198 621.225, 528.646 650.300, 563.522 685.500 L 626.932 749.500 690.967 685.502 C 726.186 650.303, 754.889 621.225, 754.751 620.884 C 754.613 620.542, 725.905 591.416, 690.956 556.159 L 627.411 492.054 563.956 556.167 M 900.565 505.195 C 893.513 512.513, 864.741 541.565, 836.628 569.756 L 785.514 621.012 849.757 685.255 L 914 749.498 978.249 685.249 L 1042.498 621 977.943 556.445 L 913.388 491.890 900.565 505.195 M 276.499 557.001 L 212.504 621.002 276.768 685.251 L 341.032 749.500 405.217 685.204 L 469.402 620.908 405.454 556.954 C 370.283 521.779, 341.278 493, 341 493 C 340.722 493, 311.696 521.800, 276.499 557.001 M 420.750 699.745 C 385.688 734.814, 357 763.956, 357 764.506 C 357 765.056, 385.689 794.192, 420.753 829.253 L 484.506 893 548.491 829.009 L 612.477 765.017 578.990 731.259 C 560.572 712.691, 531.777 683.659, 515.002 666.742 L 484.500 635.985 420.750 699.745 M 725.499 681.184 C 700.749 706.108, 671.958 735.170, 661.518 745.766 L 642.538 765.032 706.516 829.016 L 770.494 893 834.247 829.253 C 869.311 794.192, 898 765.165, 898 764.749 C 898 764.332, 869.313 735.164, 834.250 699.930 L 770.500 635.869 725.499 681.184 M 563.503 843.992 L 499.506 908 563 971.500 C 597.922 1006.425, 626.947 1035, 627.500 1035 C 628.053 1035, 656.940 1006.538, 691.693 971.750 L 754.880 908.500 691.190 844.242 L 627.500 779.983 563.503 843.992" stroke="none" fill="#fbfbfb" fill-rule="evenodd"/></svg>